<svg width="680" height="420" viewBox="0 0 680 420" xmlns="http://www.w3.org/2000/svg">

<!-- Card background — warm cream -->
<rect x="60" y="20" width="560" height="380" rx="20" fill="#f5f0e8"/>
<rect x="60" y="20" width="560" height="380" rx="20" fill="none" stroke="#e8a020" stroke-width="2"/>

<!-- Subtle grid lines -->
<line x1="60"  y1="80"  x2="620" y2="80"  stroke="#e8dcc8" stroke-width="0.7"/>
<line x1="60"  y1="140" x2="620" y2="140" stroke="#e8dcc8" stroke-width="0.7"/>
<line x1="60"  y1="200" x2="620" y2="200" stroke="#e8dcc8" stroke-width="0.7"/>
<line x1="60"  y1="260" x2="620" y2="260" stroke="#e8dcc8" stroke-width="0.7"/>
<line x1="60"  y1="320" x2="620" y2="320" stroke="#e8dcc8" stroke-width="0.7"/>
<line x1="140" y1="20"  x2="140" y2="400" stroke="#e8dcc8" stroke-width="0.7"/>
<line x1="220" y1="20"  x2="220" y2="400" stroke="#e8dcc8" stroke-width="0.7"/>
<line x1="300" y1="20"  x2="300" y2="400" stroke="#e8dcc8" stroke-width="0.7"/>
<line x1="380" y1="20"  x2="380" y2="400" stroke="#e8dcc8" stroke-width="0.7"/>
<line x1="460" y1="20"  x2="460" y2="400" stroke="#e8dcc8" stroke-width="0.7"/>
<line x1="540" y1="20"  x2="540" y2="400" stroke="#e8dcc8" stroke-width="0.7"/>

<!-- Orange left accent bar -->
<rect x="80" y="40" width="4" height="340" rx="2" fill="#e8a020"/>

<!-- CELL 1 — large, center-left -->
<circle cx="290" cy="148" r="54" fill="none" stroke="#e8a020" stroke-width="0.5" opacity="0.3"/>
<circle cx="290" cy="148" r="50" fill="none" stroke="#e8a020" stroke-width="0.8" opacity="0.4"/>
<circle cx="290" cy="148" r="44" fill="#ddd8cc" stroke="#e8a020" stroke-width="2"/>
<circle cx="290" cy="148" r="22" fill="#c8c0b0" stroke="#b0a890" stroke-width="1.2"/>
<circle cx="283" cy="142" r="4.5" fill="#a89e88" opacity="0.9"/>
<circle cx="296" cy="145" r="6"   fill="#a89e88" opacity="0.9"/>
<circle cx="288" cy="156" r="4"   fill="#a89e88" opacity="0.8"/>
<path d="M266 122 L252 106 L268 120" fill="#e8e0d0" stroke="#c8b890" stroke-width="1"/>
<path d="M314 118 L324 100 L312 118" fill="#e8e0d0" stroke="#c8b890" stroke-width="1"/>
<path d="M256 170 L238 178 L256 168" fill="#e8e0d0" stroke="#c8b890" stroke-width="1"/>
<path d="M324 168 L342 176 L324 166" fill="#e8e0d0" stroke="#c8b890" stroke-width="1"/>

<!-- CELL 2 — large, right -->
<circle cx="430" cy="136" r="44" fill="none" stroke="#e8a020" stroke-width="0.8" opacity="0.4"/>
<circle cx="430" cy="136" r="38" fill="#ddd8cc" stroke="#e8a020" stroke-width="2"/>
<circle cx="430" cy="136" r="18" fill="#c8c0b0" stroke="#b0a890" stroke-width="1.2"/>
<circle cx="424" cy="131" r="3.5" fill="#a89e88" opacity="0.9"/>
<circle cx="435" cy="134" r="5"   fill="#a89e88" opacity="0.9"/>
<circle cx="428" cy="143" r="3"   fill="#a89e88" opacity="0.8"/>
<path d="M414 116 L404 100 L416 116" fill="#e8e0d0" stroke="#c8b890" stroke-width="1"/>
<path d="M446 124 L460 110 L446 124" fill="#e8e0d0" stroke="#c8b890" stroke-width="1"/>
<path d="M452 150 L468 158 L452 148" fill="#e8e0d0" stroke="#c8b890" stroke-width="1"/>

<!-- Small vesicles -->
<circle cx="246" cy="104" r="7"   fill="#e8e0d0" stroke="#e8a020" stroke-width="1.2"/>
<circle cx="246" cy="104" r="3.5" fill="#d4c8b0"/>
<circle cx="324" cy="96"  r="9"   fill="#e8e0d0" stroke="#e8a020" stroke-width="1.2"/>
<circle cx="324" cy="96"  r="4.5" fill="#d4c8b0"/>
<circle cx="386" cy="100" r="6"   fill="#e8e0d0" stroke="#e8a020" stroke-width="1.2"/>
<circle cx="386" cy="100" r="3"   fill="#d4c8b0"/>
<circle cx="470" cy="108" r="8"   fill="#e8e0d0" stroke="#e8a020" stroke-width="1.2"/>
<circle cx="470" cy="108" r="4"   fill="#d4c8b0"/>
<circle cx="478" cy="158" r="6"   fill="#e8e0d0" stroke="#e8a020" stroke-width="1.2"/>
<circle cx="478" cy="158" r="3"   fill="#d4c8b0"/>
<circle cx="230" cy="172" r="5"   fill="#e8e0d0" stroke="#e8a020" stroke-width="1.2"/>
<circle cx="230" cy="172" r="2.5" fill="#d4c8b0"/>
<circle cx="350" cy="84"  r="5"   fill="#e8e0d0" stroke="#e8a020" stroke-width="1.2"/>
<circle cx="350" cy="84"  r="2.5" fill="#d4c8b0"/>
<circle cx="498" cy="132" r="7"   fill="#e8e0d0" stroke="#e8a020" stroke-width="1.2"/>
<circle cx="498" cy="132" r="3.5" fill="#d4c8b0"/>
<circle cx="210" cy="138" r="6"   fill="#e8e0d0" stroke="#e8a020" stroke-width="1.2"/>
<circle cx="210" cy="138" r="3"   fill="#d4c8b0"/>
<circle cx="266" cy="84"  r="3"   fill="#d0c4a8" opacity="0.8"/>
<circle cx="356" cy="72"  r="2"   fill="#d0c4a8" opacity="0.7"/>
<circle cx="412" cy="80"  r="2.5" fill="#d0c4a8" opacity="0.7"/>
<circle cx="486" cy="88"  r="2"   fill="#d0c4a8" opacity="0.6"/>

<!-- Typography -->
<text x="108" y="250" font-family="Georgia,serif" font-size="13" font-style="italic" fill="#888070" letter-spacing="1">Welcome to the</text>
<text x="105" y="292" font-family="Georgia,serif" font-size="38" font-weight="700" fill="#2a2418" letter-spacing="1">Cingöz Lab</text>
<rect x="105" y="300" width="340" height="3" rx="1.5" fill="#e8a020"/>
<text x="105" y="322" font-family="Arial,sans-serif" font-size="11" fill="#6a6050" letter-spacing="0.5">Cancer Therapy Resistance and Tumor Metabolism Laboratory</text>

<!-- Tags -->
<rect x="105" y="338" width="110" height="22" rx="11" fill="none" stroke="#e8a020" stroke-width="1.3"/>
<text x="160" y="353" text-anchor="middle" font-family="Arial,sans-serif" font-size="9.5" fill="#6a6050">Cancer Research</text>
<rect x="224" y="338" width="84"  height="22" rx="11" fill="none" stroke="#e8a020" stroke-width="1.3"/>
<text x="266" y="353" text-anchor="middle" font-family="Arial,sans-serif" font-size="9.5" fill="#6a6050">Metabolism</text>
<rect x="317" y="338" width="104" height="22" rx="11" fill="none" stroke="#e8a020" stroke-width="1.3"/>
<text x="369" y="353" text-anchor="middle" font-family="Arial,sans-serif" font-size="9.5" fill="#6a6050">Drug Resistance</text>

<!-- Footer -->
<line x1="80" y1="376" x2="620" y2="376" stroke="#e8dcc8" stroke-width="1"/>
<text x="340" y="392" text-anchor="middle" font-family="Arial,sans-serif" font-size="8.5" fill="#b0a890" letter-spacing="1">BEZMIALEM VAKIF UNIVERSITY · github.com/Cingoz-Lab</text>

</svg>
